<svg xmlns="http://www.w3.org/2000/svg" viewBox="0 0 59.2 45.1" fill="#e12457"><path d="M2.5 41.6c-1.4 0-2.5.1-2.5.2l1.2 3.1c0 .1 4 .2 5.3.2h41.8l5.3-.2 1.2-3.1c0-.1-1.1-.2-2.5-.2H2.5zM47.6 5.8h-.3l.3-4A1.79 1.79 0 0 0 45.8 0H31.5v19l5.8 1.9L33.6 32l-11.1-3.7 3.7-11.2 4.6 1.5V0H9.1a1.79 1.79 0 0 0-1.8 1.8l3 36.7a1.79 1.79 0 0 0 1.8 1.8h30.7a1.79 1.79 0 0 0 1.8-1.8l.8-9.7c.7.1 1.4.2 2.2.2a11.61 11.61 0 0 0 11.6-11.6A11.61 11.61 0 0 0 47.6 5.8zm5.87 16.44c-.3.38-.65.72-1.03 1.03A7.59 7.59 0 0 1 47.6 25c-.7 0-1.3 0-1.9-.2l1.2-15h.7a7.6 7.6 0 0 1 7.6 7.6 7.61 7.61 0 0 1-1.73 4.84z"/></svg>