<svg xmlns="http://www.w3.org/2000/svg" viewBox="0 0 84 60" fill="#e12457"><path d="M77.9 45H6.1C5 29.65 12.47 15.26 24.5 7.98l2.53 22.68c.18 1.65 1.67 2.85 3.3 2.65C32 33.13 33.2 31.65 33 30L30.02 3.32a2.97 2.97 0 0 1 .75-2.3C31.35.37 32.2 0 33.08 0h17.84c.9 0 1.73.37 2.3 1.02.56.62.84 1.45.75 2.25L51 30c-.2 1.65 1 3.13 2.65 3.3a2.99 2.99 0 0 0 3.31-2.65L59.5 7.98C71.53 15.26 79 29.65 77.9 45zM84 55.5a4.51 4.51 0 0 1-4.5 4.5h-75A4.51 4.51 0 0 1 0 55.5 4.51 4.51 0 0 1 4.5 51h75a4.51 4.51 0 0 1 4.5 4.5z"/></svg>