<svg xmlns="http://www.w3.org/2000/svg" viewBox="0 0 96 96"><path d="M48-.002c-26.47 0-48 21.53-48 48s21.53 48 48 48 48-21.53 48-48a47.73 47.73 0 0 0-7.41-25.63c.9-1.6 1.4-3.44 1.4-5.38a11.05 11.05 0 0 0-11-11c-1.95 0-3.78.53-5.38 1.44C66.2 2.748 57.4-.002 48-.002zm0 6c7.8 0 15.06 2.12 21.3 5.8-.84 1.55-1.3 3.3-1.3 5.2a11.05 11.05 0 0 0 11 11c1.9 0 3.66-.46 5.22-1.3 3.68 6.25 5.78 13.53 5.78 21.3 0 23.23-18.77 42-42 42s-42-18.77-42-42 18.77-42 42-42zm0 13c-15.98 0-29 13.02-29 29a28.84 28.84 0 0 0 3.28 13.41c-.82 1.35-1.28 2.9-1.28 4.6a9.05 9.05 0 0 0 9 9 8.87 8.87 0 0 0 4.59-1.28A28.84 28.84 0 0 0 48 76.998c15.98 0 29-13.02 29-29s-13.02-29-29-29zm0 6c12.74 0 23 10.26 23 23s-10.26 23-23 23a22.75 22.75 0 0 1-9.5-2.06c.32-.92.5-1.92.5-2.94a9.05 9.05 0 0 0-9-9c-1.03 0-2 .18-2.94.5-1.32-2.9-2.06-6.1-2.06-9.5 0-12.74 10.26-23 23-23zm0 11c-6.6 0-12 5.4-12 12s5.4 12 12 12 12-5.4 12-12-5.4-12-12-12zm0 6a5.95 5.95 0 0 1 6 6 5.95 5.95 0 0 1-6 6 5.95 5.95 0 0 1-6-6 5.95 5.95 0 0 1 6-6z" fill="#e12457"/></svg>