<svg xmlns="http://www.w3.org/2000/svg" viewBox="0 0 34 48"><path d="M31.8 41.3h-8.86c5.03-2 8.6-6.9 8.6-12.64 0-3.05-1.02-5.87-2.72-8.14.35-.76.54-1.6.54-2.48a5.98 5.98 0 0 0-5.43-5.96l1.55-2.53c.62-1 .3-2.33-.68-2.97l2.87-4.68-3.1-1.9-2.87 4.68c-1.02-.6-2.34-.27-2.96.74l-9.6 15.66-1.7-1.03-2.4 3.9 10.12 6.2 2.4-3.9-1.7-1.03 2.44-3.98a5.97 5.97 0 0 0 5.06 2.79c.5 0 .97-.07 1.43-.18.96 1.36 1.52 3.02 1.52 4.8a8.37 8.37 0 0 1-8.38 8.37 8.38 8.38 0 0 1-3.86-.95h2.27v-3.22H0v3.22h6.58a13.74 13.74 0 0 0 6.38 5.22H2.94c-1.2 0-2.18.98-2.18 2.18v2.33C.76 47 1.74 48 2.94 48H31.8C33 48 34 47 34 45.8v-2.33a2.18 2.18 0 0 0-2.18-2.18z" fill="#e12457"/></svg>