<svg xmlns="http://www.w3.org/2000/svg" viewBox="0 0 47.94 48" fill="#e12457" stroke="#fff" stroke-miterlimit="10"><path d="M37.1 26.1L24.3 10.8l-.1-.1C18.4 4.9 10.8 1.3 2.7.5c-.6 0-1.2.2-1.6.6s-.6 1-.6 1.6c.8 8.1 4.4 15.7 10.1 21.5l.1.1L26.1 37c.4.3.8.5 1.3.5s1-.2 1.4-.6l2.7-2.7.3.3c.4.4.9.6 1.4.6s1-.2 1.4-.6a1.93 1.93 0 0 0 0-2.8l-.3-.3 2.7-2.7c.7-.7.7-1.8.1-2.6zM34 39.4l2.1 2.2m0 1.9c-.5 0-1-.2-1.4-.6l-2.2-2.2a1.93 1.93 0 0 1 0-2.8 1.93 1.93 0 0 1 2.8 0l2.2 2.2a1.93 1.93 0 0 1 0 2.8c-.4.4-.9.6-1.4.6zm3.3-9.6l2.2 2.2m0 2c-.5 0-1-.2-1.4-.6L38 35.3a1.93 1.93 0 0 1 0-2.8 1.93 1.93 0 0 1 2.8 0l2.2 2.2a1.93 1.93 0 0 1 0 2.8c-.4.4-.9.6-1.4.6zm-30.5-8.5c-1.7 5.3-.1 11.5 4.6 17.2.4.5.9.7 1.5.7h.1c.6 0 1.2-.4 1.5-.9l4.3-6.9-12-10.1zM47 16c-2.7-3.3-6.5-5.3-10.7-5.7-2.3-.3-4.6 0-6.7.7l10.1 12.1 6.8-4.3c.5-.3.8-.8.9-1.3s0-1.1-.4-1.5z"/></svg>