<svg style="position: absolute; width: 0; height: 0; overflow: hidden;">
  <defs>
    <symbol id="helmet" viewBox="0 0 84 60">
      <path d="M77.9 45H6.1C5 29.65 12.47 15.26 24.5 7.98l2.53 22.68c.18 1.65 1.67 2.85 3.3 2.65C32 33.13 33.2 31.65 33 30L30.02 3.32a2.97 2.97 0 0 1 .75-2.3C31.35.37 32.2 0 33.08 0h17.84c.9 0 1.73.37 2.3 1.02.56.62.84 1.45.75 2.25L51 30c-.2 1.65 1 3.13 2.65 3.3a2.99 2.99 0 0 0 3.31-2.65L59.5 7.98C71.53 15.26 79 29.65 77.9 45zM84 55.5a4.51 4.51 0 0 1-4.5 4.5h-75A4.51 4.51 0 0 1 0 55.5 4.51 4.51 0 0 1 4.5 51h75a4.51 4.51 0 0 1 4.5 4.5z"/>
    </symbol>

    <symbol id="youtube" viewBox="0 0 461.001 461.001">
      <path d="M365.257 67.393H95.744C42.866 67.393 0 110.26 0 163.137v134.728c0 52.878 42.866 95.744 95.744 95.744h269.513c52.878 0 95.744-42.866 95.744-95.744V163.137c0-52.878-42.866-95.744-95.744-95.744zm-64.75 169.663l-126.06 60.123c-3.36 1.602-7.24-.847-7.24-4.568V168.607c0-3.774 3.982-6.22 7.348-4.514l126.06 63.88c3.748 1.9 3.683 7.274-.11 9.082z" fill="#f61c0d"/>
    </symbol>

    <symbol id="facebook" viewBox="0 0 112.196 112.196">
      <circle cx="56.098" cy="56.098" r="56.098" fill="#3b5998"/><path d="M70.2 58.294h-10v36.672H45.025V58.294h-7.213V45.406h7.213v-8.34c0-5.964 2.833-15.303 15.3-15.303l11.234.047v12.5h-8.15c-1.337 0-3.217.668-3.217 3.513v7.585h11.334L70.2 58.294z" fill="#fff"/>
    </symbol>

    <symbol id="down" viewBox="0 0 23.063 22.125">
      <path d="M11.222 20.425l10.142-10.142a1 1 0 0 1 1.687.441 1 1 0 0 1-.273.973L12.636 21.84a1 1 0 0 1-1.687-.441 1 1 0 0 1 .273-.973zm.5-.05L1.69 10.343a.99.99 0 0 0-1.356.044.99.99 0 0 0-.044 1.356l10.033 10.033a.99.99 0 0 0 1.345-.056.99.99 0 0 0 .051-1.345zm-.5-9.95L21.364.282a1 1 0 1 1 1.414 1.415L12.636 11.84a1 1 0 1 1-1.414-1.415z" fill="#fff" fill-rule="evenodd"/>
    </symbol>

    <symbol id="cup" viewBox="0 0 59.2 45.1">
      <path d="M2.5 41.6c-1.4 0-2.5.1-2.5.2l1.2 3.1c0 .1 4 .2 5.3.2h41.8l5.3-.2 1.2-3.1c0-.1-1.1-.2-2.5-.2H2.5zM47.6 5.8h-.3l.3-4A1.79 1.79 0 0 0 45.8 0H31.5v19l5.8 1.9L33.6 32l-11.1-3.7 3.7-11.2 4.6 1.5V0H9.1a1.79 1.79 0 0 0-1.8 1.8l3 36.7a1.79 1.79 0 0 0 1.8 1.8h30.7a1.79 1.79 0 0 0 1.8-1.8l.8-9.7c.7.1 1.4.2 2.2.2a11.61 11.61 0 0 0 11.6-11.6A11.61 11.61 0 0 0 47.6 5.8zm5.87 16.44c-.3.38-.65.72-1.03 1.03A7.59 7.59 0 0 1 47.6 25c-.7 0-1.3 0-1.9-.2l1.2-15h.7a7.6 7.6 0 0 1 7.6 7.6 7.61 7.61 0 0 1-1.73 4.84z"/>
    </symbol>

    <symbol id="twitter" viewBox="0 0 112.197 112.197">
      <circle cx="56.099" cy="56.098" r="56.098" fill="#55acee"/><path d="M90.46 40.316c-2.404 1.066-5 1.787-7.702 2.11 2.77-1.66 4.894-4.284 5.897-7.417-2.59 1.537-5.462 2.652-8.515 3.253-2.446-2.605-5.93-4.233-9.8-4.233-7.404 0-13.41 6.005-13.41 13.41 0 1.05.12 2.074.35 3.056-11.144-.56-21.025-5.897-27.64-14.012a13.35 13.35 0 0 0-1.816 6.742c0 4.65 2.37 8.757 5.965 11.16-2.197-.07-4.266-.672-6.073-1.68l-.001.17a13.42 13.42 0 0 0 10.757 13.147 13.36 13.36 0 0 1-3.532.471c-.866 0-1.705-.083-2.523-.24 1.706 5.326 6.657 9.203 12.526 9.312-4.6 3.597-10.37 5.74-16.655 5.74a27 27 0 0 1-3.197-.188 37.93 37.93 0 0 0 20.553 6.025C70.32 87.143 83.808 66.71 83.808 49a38.35 38.35 0 0 0-.039-1.734 27.19 27.19 0 0 0 6.692-6.94z" fill="#f1f2f2"/>
    </symbol>

    <symbol id="vkontakte" viewBox="0 0 112.196 112.196">
      <circle cx="56.098" cy="56.098" r="56.098" fill="#4d76a1"/><path d="M53.98 80.702h4.403s1.33-.146 2.01-.878c.625-.672.605-1.934.605-1.934s-.086-5.908 2.656-6.778c2.703-.857 6.174 5.7 9.853 8.235 2.782 1.91 4.896 1.492 4.896 1.492l9.837-.137s5.146-.317 2.706-4.363c-.2-.33-1.42-2.993-7.314-8.463-6.168-5.725-5.342-4.8 2.088-14.702 4.525-6.03 6.334-9.713 5.77-11.3-.54-1.502-3.867-1.105-3.867-1.105l-11.076.07s-.82-.112-1.43.252c-.595.357-.978 1.19-.978 1.19s-1.753 4.667-4.09 8.636c-4.932 8.375-6.904 8.817-7.7 8.297-1.875-1.212-1.407-4.87-1.407-7.467 0-8.116 1.23-11.5-2.397-12.376-1.204-.29-2.1-.483-5.17-.514-3.952-.04-7.297.012-9.19.94-1.26.617-2.232 1.992-1.64 2.07.732.098 2.4.447 3.27 1.644 1.135 1.544 1.095 5.012 1.095 5.012s.652 9.554-1.523 10.74c-1.493.814-3.54-.848-7.938-8.446-2.253-3.892-3.954-8.194-3.954-8.194s-.328-.804-.913-1.234c-.7-.52-1.702-.687-1.702-.687l-10.525.07s-1.58.044-2.16.73c-.516.61-.04 1.875-.04 1.875s8.24 19.278 17.57 28.993c8.555 8.907 18.27 8.322 18.27 8.322z" fill-rule="evenodd" fill="#fff"/>
    </symbol>

    <symbol id="ship" viewBox="0 0 47.94 48" fill="#e12457" stroke="#fff" stroke-miterlimit="10">
      <path d="M37.1 26.1L24.3 10.8l-.1-.1C18.4 4.9 10.8 1.3 2.7.5c-.6 0-1.2.2-1.6.6s-.6 1-.6 1.6c.8 8.1 4.4 15.7 10.1 21.5l.1.1L26.1 37c.4.3.8.5 1.3.5s1-.2 1.4-.6l2.7-2.7.3.3c.4.4.9.6 1.4.6s1-.2 1.4-.6a1.93 1.93 0 0 0 0-2.8l-.3-.3 2.7-2.7c.7-.7.7-1.8.1-2.6zM34 39.4l2.1 2.2m0 1.9c-.5 0-1-.2-1.4-.6l-2.2-2.2a1.93 1.93 0 0 1 0-2.8 1.93 1.93 0 0 1 2.8 0l2.2 2.2a1.93 1.93 0 0 1 0 2.8c-.4.4-.9.6-1.4.6zm3.3-9.6l2.2 2.2m0 2c-.5 0-1-.2-1.4-.6L38 35.3a1.93 1.93 0 0 1 0-2.8 1.93 1.93 0 0 1 2.8 0l2.2 2.2a1.93 1.93 0 0 1 0 2.8c-.4.4-.9.6-1.4.6zm-30.5-8.5c-1.7 5.3-.1 11.5 4.6 17.2.4.5.9.7 1.5.7h.1c.6 0 1.2-.4 1.5-.9l4.3-6.9-12-10.1zM47 16c-2.7-3.3-6.5-5.3-10.7-5.7-2.3-.3-4.6 0-6.7.7l10.1 12.1 6.8-4.3c.5-.3.8-.8.9-1.3s0-1.1-.4-1.5z"/>
    </symbol>

    <symbol id="photo" viewBox="0 0 72 60">
      <path d="M26-.002l-5 10H7c-3.88 0-7 3.12-7 7v36c0 3.88 3.12 7 7 7h58c3.88 0 7-3.12 7-7v-36c0-3.88-3.12-7-7-7H51l-5-10H26zm10 18c9.35 0 17 7.65 17 17s-7.65 17-17 17-17-7.65-17-17 7.65-17 17-17zm0 6c-6.1 0-11 4.9-11 11s4.9 11 11 11 11-4.9 11-11-4.9-11-11-11z"/>
    </symbol>

    <symbol id="logo" viewBox="0 0 96 96">
      <path d="M48-.002c-26.47 0-48 21.53-48 48s21.53 48 48 48 48-21.53 48-48a47.73 47.73 0 0 0-7.41-25.63c.9-1.6 1.4-3.44 1.4-5.38a11.05 11.05 0 0 0-11-11c-1.95 0-3.78.53-5.38 1.44C66.2 2.748 57.4-.002 48-.002zm0 6c7.8 0 15.06 2.12 21.3 5.8-.84 1.55-1.3 3.3-1.3 5.2a11.05 11.05 0 0 0 11 11c1.9 0 3.66-.46 5.22-1.3 3.68 6.25 5.78 13.53 5.78 21.3 0 23.23-18.77 42-42 42s-42-18.77-42-42 18.77-42 42-42zm0 13c-15.98 0-29 13.02-29 29a28.84 28.84 0 0 0 3.28 13.41c-.82 1.35-1.28 2.9-1.28 4.6a9.05 9.05 0 0 0 9 9 8.87 8.87 0 0 0 4.59-1.28A28.84 28.84 0 0 0 48 76.998c15.98 0 29-13.02 29-29s-13.02-29-29-29zm0 6c12.74 0 23 10.26 23 23s-10.26 23-23 23a22.75 22.75 0 0 1-9.5-2.06c.32-.92.5-1.92.5-2.94a9.05 9.05 0 0 0-9-9c-1.03 0-2 .18-2.94.5-1.32-2.9-2.06-6.1-2.06-9.5 0-12.74 10.26-23 23-23zm0 11c-6.6 0-12 5.4-12 12s5.4 12 12 12 12-5.4 12-12-5.4-12-12-12zm0 6a5.95 5.95 0 0 1 6 6 5.95 5.95 0 0 1-6 6 5.95 5.95 0 0 1-6-6 5.95 5.95 0 0 1 6-6z"/>
    </symbol>

    <symbol id="microscope" viewBox="0 0 34 48">
      <path d="M31.8 41.3h-8.86c5.03-2 8.6-6.9 8.6-12.64 0-3.05-1.02-5.87-2.72-8.14.35-.76.54-1.6.54-2.48a5.98 5.98 0 0 0-5.43-5.96l1.55-2.53c.62-1 .3-2.33-.68-2.97l2.87-4.68-3.1-1.9-2.87 4.68c-1.02-.6-2.34-.27-2.96.74l-9.6 15.66-1.7-1.03-2.4 3.9 10.12 6.2 2.4-3.9-1.7-1.03 2.44-3.98a5.97 5.97 0 0 0 5.06 2.79c.5 0 .97-.07 1.43-.18.96 1.36 1.52 3.02 1.52 4.8a8.37 8.37 0 0 1-8.38 8.37 8.38 8.38 0 0 1-3.86-.95h2.27v-3.22H0v3.22h6.58a13.74 13.74 0 0 0 6.38 5.22H2.94c-1.2 0-2.18.98-2.18 2.18v2.33C.76 47 1.74 48 2.94 48H31.8C33 48 34 47 34 45.8v-2.33a2.18 2.18 0 0 0-2.18-2.18z"/>
    </symbol>

    <svg id="leaves" viewBox="0 0 72.17 73.06">
      <path d="M49.25 29.8s1.8-19.27-16.7-29.8c0 0-19.03 15.9-15.5 29.2 0 0 9.87 3.13 13 12.12a4.68 4.68 0 0 1 .13.4s-.58-10.45 4.18-22.65c0 0-3.45 23.03-.6 30.4.01 0 2.15-14.68 15.52-19.68zm-35.8 9.54s9.92 4.43 16.7 12.52c.44.54.55-21.76-29.84-24.44 0 0-5.85 39.14 32.22 36.36 0 0-5.7-14.36-19.1-24.44zm56.9-12s-36.32-.75-34.87 34.83c0 0 9.3-15.77 23.97-21.77 0 0-22.6 13.4-21.8 32.65-.01.01 43.9-5.72 32.7-45.7z"/>
    </svg>
  </defs>
</svg>
